STARTFONT 2.1
FONT -Monotype-Bookman Old Style-Bold-R-Normal--14-140-75-75-P-76-iso8859-9
SIZE 14 75 75
FONTBOUNDINGBOX 17 17 -1 -4

STARTPROPERTIES 21
FOUNDRY "Monotype"
FAMILY_NAME "Bookman Old Style"
WEIGHT_NAME "Bold"
SLANT "R"
SETWIDTH_NAME "Normal"
ADD_STYLE_NAME ""
PIXEL_SIZE 14
POINT_SIZE 140
RESOLUTION_X 75
RESOLUTION_Y 75
SPACING "P"
AVERAGE_WIDTH 76
CHARSET_REGISTRY "iso8859"
CHARSET_ENCODING "9"
COPYRIGHT "Copyright (c) 1996 Monotype Typography Ltd."
CAP_HEIGHT 12
X_HEIGHT 8
WEIGHT 10
QUAD_WIDTH 11
FONT_DESCENT 4
FONT_ASCENT 14
ENDPROPERTIES

CHARS 191

STARTCHAR space
ENCODING 32
SWIDTH 340 0
DWIDTH 5 0
BBX 0 0 0 0
BITMAP
ENDCHAR

STARTCHAR exclam
ENCODING 33
SWIDTH 360 0
DWIDTH 5 0
BBX 2 11 2 0
BITMAP
C0
C0
C0
C0
C0
C0
40
00
00
C0
C0
ENDCHAR

STARTCHAR quotedbl
ENCODING 34
SWIDTH 420 0
DWIDTH 6 0
BBX 5 5 1 5
BITMAP
48
D8
D8
48
48
ENDCHAR

STARTCHAR numbersign
ENCODING 35
SWIDTH 600 0
DWIDTH 9 0
BBX 8 10 1 0
BITMAP
36
36
36
7F
36
FF
6C
6C
6C
6C
ENDCHAR

STARTCHAR dollar
ENCODING 36
SWIDTH 660 0
DWIDTH 10 0
BBX 8 14 1 -2
BITMAP
10
10
7A
F7
D3
F1
7C
1E
97
D3
F7
5E
10
10
ENDCHAR

STARTCHAR percent
ENCODING 37
SWIDTH 940 0
DWIDTH 14 0
BBX 14 10 0 0
BITMAP
3040
48C0
CC80
CD00
4B30
3248
04CC
0CCC
0848
1030
ENDCHAR

STARTCHAR ampersand
ENCODING 38
SWIDTH 800 0
DWIDTH 12 0
BBX 11 10 1 0
BITMAP
3800
6C00
6C00
3BC0
6980
CD80
CD20
C760
6740
3980
ENDCHAR

STARTCHAR quoteright
ENCODING 39
SWIDTH 320 0
DWIDTH 5 0
BBX 2 5 2 6
BITMAP
C0
C0
40
40
80
ENDCHAR

STARTCHAR parenleft
ENCODING 40
SWIDTH 320 0
DWIDTH 5 0
BBX 3 14 1 -3
BITMAP
20
60
40
C0
C0
C0
C0
C0
C0
C0
C0
40
60
20
ENDCHAR

STARTCHAR parenright
ENCODING 41
SWIDTH 320 0
DWIDTH 5 0
BBX 3 14 2 -3
BITMAP
80
C0
40
60
60
60
60
60
60
60
60
40
C0
80
ENDCHAR

STARTCHAR asterisk
ENCODING 42
SWIDTH 460 0
DWIDTH 7 0
BBX 5 6 1 4
BITMAP
20
A8
70
F8
20
50
ENDCHAR

STARTCHAR plus
ENCODING 43
SWIDTH 600 0
DWIDTH 9 0
BBX 7 7 1 2
BITMAP
10
10
10
FE
10
10
10
ENDCHAR

STARTCHAR comma
ENCODING 44
SWIDTH 340 0
DWIDTH 5 0
BBX 2 5 2 -3
BITMAP
C0
C0
40
40
80
ENDCHAR

STARTCHAR minus
ENCODING 45
SWIDTH 600 0
DWIDTH 9 0
BBX 7 1 1 5
BITMAP
FE
ENDCHAR

STARTCHAR period
ENCODING 46
SWIDTH 340 0
DWIDTH 5 0
BBX 2 2 2 0
BITMAP
C0
C0
ENDCHAR

STARTCHAR slash
ENCODING 47
SWIDTH 600 0
DWIDTH 9 0
BBX 6 14 1 -3
BITMAP
0C
0C
0C
18
18
18
30
30
30
60
60
60
C0
C0
ENDCHAR

STARTCHAR zero
ENCODING 48
SWIDTH 660 0
DWIDTH 10 0
BBX 8 10 1 0
BITMAP
3C
66
C3
C3
C3
C3
C3
C3
66
3C
ENDCHAR

STARTCHAR one
ENCODING 49
SWIDTH 660 0
DWIDTH 10 0
BBX 6 10 2 0
BITMAP
10
F0
30
30
30
30
30
30
30
FC
ENDCHAR

STARTCHAR two
ENCODING 50
SWIDTH 660 0
DWIDTH 10 0
BBX 8 10 1 0
BITMAP
3C
66
C3
83
03
06
0C
11
63
FE
ENDCHAR

STARTCHAR three
ENCODING 51
SWIDTH 660 0
DWIDTH 10 0
BBX 8 10 1 0
BITMAP
7C
CE
86
0C
3C
06
03
83
C6
7C
ENDCHAR

STARTCHAR four
ENCODING 52
SWIDTH 660 0
DWIDTH 10 0
BBX 9 10 1 0
BITMAP
0E00
1E00
3600
6600
4600
C600
FF80
0600
0600
0600
ENDCHAR

STARTCHAR five
ENCODING 53
SWIDTH 660 0
DWIDTH 10 0
BBX 8 10 1 0
BITMAP
7F
C0
C0
F8
BE
07
03
83
C6
7C
ENDCHAR

STARTCHAR six
ENCODING 54
SWIDTH 660 0
DWIDTH 10 0
BBX 8 10 1 0
BITMAP
0F
38
60
7C
E6
C3
C3
C3
66
3C
ENDCHAR

STARTCHAR seven
ENCODING 55
SWIDTH 660 0
DWIDTH 10 0
BBX 9 10 1 0
BITMAP
7F80
C300
C600
8600
0C00
0C00
1800
1800
3800
3000
ENDCHAR

STARTCHAR eight
ENCODING 56
SWIDTH 660 0
DWIDTH 10 0
BBX 8 10 1 0
BITMAP
3C
66
66
76
3C
7E
C7
C3
E7
7E
ENDCHAR

STARTCHAR nine
ENCODING 57
SWIDTH 660 0
DWIDTH 10 0
BBX 8 10 1 0
BITMAP
3C
66
C3
C3
C3
67
3E
06
1C
F0
ENDCHAR

STARTCHAR colon
ENCODING 58
SWIDTH 340 0
DWIDTH 5 0
BBX 2 6 2 0
BITMAP
C0
C0
00
00
C0
C0
ENDCHAR

STARTCHAR semicolon
ENCODING 59
SWIDTH 340 0
DWIDTH 5 0
BBX 2 9 2 -3
BITMAP
C0
C0
00
00
C0
C0
40
40
80
ENDCHAR

STARTCHAR less
ENCODING 60
SWIDTH 600 0
DWIDTH 9 0
BBX 7 8 1 1
BITMAP
02
0E
38
C0
E0
38
0E
02
ENDCHAR

STARTCHAR equal
ENCODING 61
SWIDTH 600 0
DWIDTH 9 0
BBX 7 4 1 3
BITMAP
FE
00
00
FE
ENDCHAR

STARTCHAR greater
ENCODING 62
SWIDTH 600 0
DWIDTH 9 0
BBX 7 8 1 1
BITMAP
80
E0
38
0E
06
38
E0
80
ENDCHAR

STARTCHAR question
ENCODING 63
SWIDTH 660 0
DWIDTH 10 0
BBX 8 11 1 0
BITMAP
7C
CE
87
03
03
06
3C
20
00
30
30
ENDCHAR

STARTCHAR at
ENCODING 64
SWIDTH 820 0
DWIDTH 12 0
BBX 13 14 0 -3
BITMAP
0FE0
1010
2008
4348
46C8
8CC8
8C88
9988
9B90
5DA8
48C8
2010
1860
0780
ENDCHAR

STARTCHAR A
ENCODING 65
SWIDTH 720 0
DWIDTH 11 0
BBX 11 10 0 0
BITMAP
0C00
0E00
1E00
1B00
1300
3180
3F80
61C0
40C0
E1E0
ENDCHAR

STARTCHAR B
ENCODING 66
SWIDTH 720 0
DWIDTH 11 0
BBX 9 10 1 0
BITMAP
FF00
6180
6180
6180
7F00
6300
6180
6180
6180
FF00
ENDCHAR

STARTCHAR C
ENCODING 67
SWIDTH 740 0
DWIDTH 11 0
BBX 10 10 1 0
BITMAP
1E80
71C0
60C0
C040
C000
C000
C040
60C0
7180
1E00
ENDCHAR

STARTCHAR D
ENCODING 68
SWIDTH 780 0
DWIDTH 12 0
BBX 10 10 1 0
BITMAP
FE00
6380
6180
60C0
60C0
60C0
60C0
6180
6380
FE00
ENDCHAR

STARTCHAR E
ENCODING 69
SWIDTH 720 0
DWIDTH 11 0
BBX 9 10 1 0
BITMAP
FF00
6180
6080
6200
7E00
6200
6000
6080
6180
FF00
ENDCHAR

STARTCHAR F
ENCODING 70
SWIDTH 680 0
DWIDTH 10 0
BBX 9 10 1 0
BITMAP
FF00
6180
6080
6200
7E00
6200
6000
6000
6000
F000
ENDCHAR

STARTCHAR G
ENCODING 71
SWIDTH 780 0
DWIDTH 12 0
BBX 11 10 1 0
BITMAP
1E80
71C0
60C0
C040
C000
C1E0
C0C0
60C0
71C0
1E40
ENDCHAR

STARTCHAR H
ENCODING 72
SWIDTH 820 0
DWIDTH 12 0
BBX 10 10 1 0
BITMAP
F3C0
6180
6180
6180
7F80
6180
6180
6180
6180
F3C0
ENDCHAR

STARTCHAR I
ENCODING 73
SWIDTH 400 0
DWIDTH 6 0
BBX 4 10 1 0
BITMAP
F0
60
60
60
60
60
60
60
60
F0
ENDCHAR

STARTCHAR J
ENCODING 74
SWIDTH 640 0
DWIDTH 10 0
BBX 9 10 0 0
BITMAP
0780
0300
0300
0300
0300
0300
4300
E300
7600
3C00
ENDCHAR

STARTCHAR K
ENCODING 75
SWIDTH 800 0
DWIDTH 12 0
BBX 11 10 1 0
BITMAP
F3E0
6180
6300
6600
6C00
7E00
7300
6180
60C0
F1E0
ENDCHAR

STARTCHAR L
ENCODING 76
SWIDTH 640 0
DWIDTH 10 0
BBX 9 10 1 0
BITMAP
F000
6000
6000
6000
6000
6000
6000
6180
6380
FF00
ENDCHAR

STARTCHAR M
ENCODING 77
SWIDTH 940 0
DWIDTH 14 0
BBX 12 10 1 0
BITMAP
F8F0
78E0
59E0
5960
5D60
4D60
4E60
4E60
4660
E4F0
ENDCHAR

STARTCHAR N
ENCODING 78
SWIDTH 740 0
DWIDTH 11 0
BBX 10 10 1 0
BITMAP
F1C0
7880
5880
4C80
4C80
4680
4680
4380
4380
E180
ENDCHAR

STARTCHAR O
ENCODING 79
SWIDTH 800 0
DWIDTH 12 0
BBX 10 10 1 0
BITMAP
1E00
7380
6180
C0C0
C0C0
C0C0
C0C0
6180
7380
1E00
ENDCHAR

STARTCHAR P
ENCODING 80
SWIDTH 660 0
DWIDTH 10 0
BBX 9 10 1 0
BITMAP
FE00
6300
6180
6180
6300
7E00
6000
6000
6000
F000
ENDCHAR

STARTCHAR Q
ENCODING 81
SWIDTH 800 0
DWIDTH 12 0
BBX 10 13 1 -3
BITMAP
1E00
7380
6180
C0C0
C0C0
C0C0
C0C0
6180
7380
1E00
0C00
0C40
0780
ENDCHAR

STARTCHAR R
ENCODING 82
SWIDTH 780 0
DWIDTH 12 0
BBX 10 10 1 0
BITMAP
FF00
6180
60C0
60C0
6180
7F00
6600
6300
6380
F1C0
ENDCHAR

STARTCHAR S
ENCODING 83
SWIDTH 660 0
DWIDTH 10 0
BBX 8 10 1 0
BITMAP
7D
E7
C3
F1
7C
1E
87
C3
E7
BE
ENDCHAR

STARTCHAR T
ENCODING 84
SWIDTH 700 0
DWIDTH 10 0
BBX 10 10 0 0
BITMAP
7F80
CCC0
8C40
0C00
0C00
0C00
0C00
0C00
0C00
1E00
ENDCHAR

STARTCHAR U
ENCODING 85
SWIDTH 740 0
DWIDTH 11 0
BBX 10 10 1 0
BITMAP
F1C0
6080
6080
6080
6080
6080
6080
6080
3100
1E00
ENDCHAR

STARTCHAR V
ENCODING 86
SWIDTH 720 0
DWIDTH 11 0
BBX 11 10 0 0
BITMAP
F1E0
60C0
6080
3180
3100
3100
1B00
1A00
0E00
0C00
ENDCHAR

STARTCHAR W
ENCODING 87
SWIDTH 940 0
DWIDTH 14 0
BBX 14 10 0 0
BITMAP
F7BC
6318
6310
3310
3330
33A0
1AA0
1EE0
0CC0
0CC0
ENDCHAR

STARTCHAR X
ENCODING 88
SWIDTH 780 0
DWIDTH 11 0
BBX 11 10 0 0
BITMAP
F9E0
70C0
3980
1F00
0E00
0F00
1B00
3180
61C0
F3E0
ENDCHAR

STARTCHAR Y
ENCODING 89
SWIDTH 700 0
DWIDTH 10 0
BBX 11 10 0 0
BITMAP
F1E0
70C0
3180
1900
1A00
0E00
0C00
0C00
0C00
1E00
ENDCHAR

STARTCHAR Z
ENCODING 90
SWIDTH 640 0
DWIDTH 10 0
BBX 8 10 1 0
BITMAP
7F
E3
C6
0C
18
18
30
63
C7
FE
ENDCHAR

STARTCHAR bracketleft
ENCODING 91
SWIDTH 300 0
DWIDTH 5 0
BBX 3 14 1 -3
BITMAP
E0
C0
C0
C0
C0
C0
C0
C0
C0
C0
C0
C0
C0
E0
ENDCHAR

STARTCHAR backslash
ENCODING 92
SWIDTH 600 0
DWIDTH 9 0
BBX 6 14 1 -3
BITMAP
C0
C0
60
60
60
30
30
30
18
18
18
0C
0C
0C
ENDCHAR

STARTCHAR bracketright
ENCODING 93
SWIDTH 300 0
DWIDTH 5 0
BBX 3 14 1 -3
BITMAP
E0
60
60
60
60
60
60
60
60
60
60
60
60
E0
ENDCHAR

STARTCHAR asciicircum
ENCODING 94
SWIDTH 600 0
DWIDTH 9 0
BBX 7 6 1 4
BITMAP
10
38
28
6C
44
C6
ENDCHAR

STARTCHAR underscore
ENCODING 95
SWIDTH 500 0
DWIDTH 8 0
BBX 8 1 0 -2
BITMAP
FF
ENDCHAR

STARTCHAR quoteleft
ENCODING 96
SWIDTH 320 0
DWIDTH 5 0
BBX 2 5 2 6
BITMAP
40
80
80
C0
C0
ENDCHAR

STARTCHAR a
ENCODING 97
SWIDTH 580 0
DWIDTH 9 0
BBX 8 7 1 0
BITMAP
7C
C6
06
7E
C6
C6
7B
ENDCHAR

STARTCHAR b
ENCODING 98
SWIDTH 600 0
DWIDTH 10 0
BBX 9 11 1 0
BITMAP
2000
E000
6000
6000
6E00
7300
6180
6180
6180
7300
6E00
ENDCHAR

STARTCHAR c
ENCODING 99
SWIDTH 580 0
DWIDTH 9 0
BBX 8 7 1 0
BITMAP
3E
67
C2
C0
C0
62
3C
ENDCHAR

STARTCHAR d
ENCODING 100
SWIDTH 640 0
DWIDTH 10 0
BBX 9 11 1 0
BITMAP
0100
0700
0300
0300
3B00
6700
C300
C300
C300
6700
3B80
ENDCHAR

STARTCHAR e
ENCODING 101
SWIDTH 580 0
DWIDTH 8 0
BBX 7 7 1 0
BITMAP
3C
66
FE
C0
C0
62
3C
ENDCHAR

STARTCHAR f
ENCODING 102
SWIDTH 380 0
DWIDTH 5 0
BBX 6 11 1 0
BITMAP
38
6C
60
60
F0
60
60
60
60
60
F0
ENDCHAR

STARTCHAR g
ENCODING 103
SWIDTH 580 0
DWIDTH 9 0
BBX 7 10 2 -3
BITMAP
7A
CC
CC
CC
78
80
FC
7E
C6
FC
ENDCHAR

STARTCHAR h
ENCODING 104
SWIDTH 680 0
DWIDTH 10 0
BBX 9 11 1 0
BITMAP
2000
E000
6000
6000
6E00
7300
6300
6300
6300
6300
F780
ENDCHAR

STARTCHAR i
ENCODING 105
SWIDTH 360 0
DWIDTH 5 0
BBX 4 11 1 0
BITMAP
60
60
00
00
20
E0
60
60
60
60
F0
ENDCHAR

STARTCHAR j
ENCODING 106
SWIDTH 340 0
DWIDTH 5 0
BBX 5 14 -1 -3
BITMAP
18
18
00
00
08
38
18
18
18
18
18
98
D8
70
ENDCHAR

STARTCHAR k
ENCODING 107
SWIDTH 660 0
DWIDTH 10 0
BBX 9 11 1 0
BITMAP
2000
E000
6000
6000
6F80
6600
6C00
7C00
6600
6300
F780
ENDCHAR

STARTCHAR l
ENCODING 108
SWIDTH 340 0
DWIDTH 5 0
BBX 4 11 1 0
BITMAP
20
E0
60
60
60
60
60
60
60
60
F0
ENDCHAR

STARTCHAR m
ENCODING 109
SWIDTH 1000 0
DWIDTH 15 0
BBX 14 7 1 0
BITMAP
2EF0
F318
6318
6318
6318
6318
F7BC
ENDCHAR

STARTCHAR n
ENCODING 110
SWIDTH 680 0
DWIDTH 10 0
BBX 9 7 1 0
BITMAP
2E00
F300
6300
6300
6300
6300
F780
ENDCHAR

STARTCHAR o
ENCODING 111
SWIDTH 620 0
DWIDTH 9 0
BBX 8 7 1 0
BITMAP
3C
66
C3
C3
C3
66
3C
ENDCHAR

STARTCHAR p
ENCODING 112
SWIDTH 640 0
DWIDTH 10 0
BBX 9 10 1 -3
BITMAP
2E00
F300
6180
6180
6180
7300
6E00
6000
6000
F000
ENDCHAR

STARTCHAR q
ENCODING 113
SWIDTH 620 0
DWIDTH 10 0
BBX 9 10 1 -3
BITMAP
3B00
6700
C300
C300
C300
6700
3B00
0300
0300
0780
ENDCHAR

STARTCHAR r
ENCODING 114
SWIDTH 460 0
DWIDTH 7 0
BBX 6 7 1 0
BITMAP
2C
F4
70
60
60
60
F0
ENDCHAR

STARTCHAR s
ENCODING 115
SWIDTH 520 0
DWIDTH 8 0
BBX 7 7 1 0
BITMAP
7C
C6
E0
78
1E
C6
7C
ENDCHAR

STARTCHAR t
ENCODING 116
SWIDTH 460 0
DWIDTH 7 0
BBX 6 10 1 0
BITMAP
20
60
60
FC
60
60
60
60
6C
38
ENDCHAR

STARTCHAR u
ENCODING 117
SWIDTH 660 0
DWIDTH 10 0
BBX 9 7 1 0
BITMAP
E700
6300
6300
6300
6300
6700
3B80
ENDCHAR

STARTCHAR v
ENCODING 118
SWIDTH 600 0
DWIDTH 8 0
BBX 9 7 0 0
BITMAP
F380
6100
6300
3200
3600
1C00
1C00
ENDCHAR

STARTCHAR w
ENCODING 119
SWIDTH 800 0
DWIDTH 11 0
BBX 12 7 0 0
BITMAP
F770
6620
6660
3340
3DC0
1980
1980
ENDCHAR

STARTCHAR x
ENCODING 120
SWIDTH 600 0
DWIDTH 9 0
BBX 9 7 0 0
BITMAP
F780
7300
3600
1C00
3600
6700
F780
ENDCHAR

STARTCHAR y
ENCODING 121
SWIDTH 620 0
DWIDTH 10 0
BBX 9 11 1 -4
BITMAP
F380
6100
6300
3200
3600
1C00
1C00
0C00
9800
D800
7000
ENDCHAR

STARTCHAR z
ENCODING 122
SWIDTH 560 0
DWIDTH 9 0
BBX 8 7 1 0
BITMAP
7F
C3
8E
3C
71
C3
FE
ENDCHAR

STARTCHAR braceleft
ENCODING 123
SWIDTH 320 0
DWIDTH 5 0
BBX 4 14 1 -3
BITMAP
10
20
60
60
60
20
C0
20
60
60
60
60
20
10
ENDCHAR

STARTCHAR bar
ENCODING 124
SWIDTH 600 0
DWIDTH 9 0
BBX 2 14 4 -3
BITMAP
C0
C0
C0
C0
C0
C0
C0
C0
C0
C0
C0
C0
C0
C0
ENDCHAR

STARTCHAR braceright
ENCODING 125
SWIDTH 320 0
DWIDTH 5 0
BBX 4 14 1 -3
BITMAP
80
40
60
60
60
40
30
40
60
60
60
60
40
80
ENDCHAR

STARTCHAR asciitilde
ENCODING 126
SWIDTH 600 0
DWIDTH 9 0
BBX 7 2 1 4
BITMAP
7A
BC
ENDCHAR

STARTCHAR space
ENCODING 160
SWIDTH 340 0
DWIDTH 5 0
BBX 0 0 0 0
BITMAP
ENDCHAR

STARTCHAR exclamdown
ENCODING 161
SWIDTH 360 0
DWIDTH 5 0
BBX 3 10 1 -3
BITMAP
40
E0
60
00
40
40
E0
E0
E0
40
ENDCHAR

STARTCHAR cent
ENCODING 162
SWIDTH 660 0
DWIDTH 10 0
BBX 7 10 2 0
BITMAP
10
10
7C
EE
C0
C2
FC
38
10
10
ENDCHAR

STARTCHAR sterling
ENCODING 163
SWIDTH 660 0
DWIDTH 10 0
BBX 9 10 1 0
BITMAP
1E00
3F00
3100
3000
FE00
1800
F880
9D80
9F80
F700
ENDCHAR

STARTCHAR currency
ENCODING 164
SWIDTH 600 0
DWIDTH 9 0
BBX 8 8 1 1
BITMAP
42
FF
66
42
42
66
FF
42
ENDCHAR

STARTCHAR yen
ENCODING 165
SWIDTH 660 0
DWIDTH 10 0
BBX 11 10 0 0
BITMAP
F1E0
70C0
3180
1900
1A00
FFC0
0C00
FFC0
0C00
1E00
ENDCHAR

STARTCHAR brokenbar
ENCODING 166
SWIDTH 600 0
DWIDTH 9 0
BBX 2 15 4 -3
BITMAP
C0
C0
C0
C0
C0
C0
C0
00
C0
C0
C0
C0
C0
C0
C0
ENDCHAR

STARTCHAR section
ENCODING 167
SWIDTH 600 0
DWIDTH 9 0
BBX 7 14 1 -3
BITMAP
7C
CE
C6
F0
78
DC
CE
E6
76
3C
0E
C6
E6
7C
ENDCHAR

STARTCHAR dieresis
ENCODING 168
SWIDTH 500 0
DWIDTH 8 0
BBX 6 2 1 8
BITMAP
CC
CC
ENDCHAR

STARTCHAR copyright
ENCODING 169
SWIDTH 740 0
DWIDTH 11 0
BBX 11 11 0 -1
BITMAP
1F00
2080
4F40
5120
B020
B020
B020
5120
4E40
3180
0E00
ENDCHAR

STARTCHAR ordfeminine
ENCODING 170
SWIDTH 400 0
DWIDTH 6 0
BBX 6 5 0 5
BITMAP
F0
18
78
D8
FC
ENDCHAR

STARTCHAR guillemotleft
ENCODING 171
SWIDTH 400 0
DWIDTH 6 0
BBX 6 6 0 1
BITMAP
24
6C
D8
D8
6C
24
ENDCHAR

STARTCHAR logicalnot
ENCODING 172
SWIDTH 600 0
DWIDTH 9 0
BBX 7 4 1 3
BITMAP
FE
02
02
02
ENDCHAR

STARTCHAR hyphen
ENCODING 173
SWIDTH 360 0
DWIDTH 5 0
BBX 4 2 1 3
BITMAP
F0
F0
ENDCHAR

STARTCHAR registered
ENCODING 174
SWIDTH 740 0
DWIDTH 11 0
BBX 11 11 0 -1
BITMAP
1F00
2080
5E40
5320
9320
9C20
9620
5220
5B40
2180
1E00
ENDCHAR

STARTCHAR macron
ENCODING 175
SWIDTH 460 0
DWIDTH 7 0
BBX 5 1 1 9
BITMAP
F8
ENDCHAR

STARTCHAR degree
ENCODING 176
SWIDTH 400 0
DWIDTH 6 0
BBX 4 4 1 6
BITMAP
60
90
90
60
ENDCHAR

STARTCHAR plusminus
ENCODING 177
SWIDTH 600 0
DWIDTH 9 0
BBX 7 9 1 1
BITMAP
10
10
10
FE
10
10
10
00
FE
ENDCHAR

STARTCHAR twosuperior
ENCODING 178
SWIDTH 396 0
DWIDTH 6 0
BBX 5 5 1 5
BITMAP
70
98
10
68
F8
ENDCHAR

STARTCHAR threesuperior
ENCODING 179
SWIDTH 396 0
DWIDTH 6 0
BBX 5 5 1 5
BITMAP
70
98
30
98
F0
ENDCHAR

STARTCHAR acute
ENCODING 180
SWIDTH 400 0
DWIDTH 6 0
BBX 4 3 1 8
BITMAP
30
70
E0
ENDCHAR

STARTCHAR mu
ENCODING 181
SWIDTH 660 0
DWIDTH 10 0
BBX 8 10 1 -3
BITMAP
C6
C6
C6
C6
C6
E6
DB
C0
C0
C0
ENDCHAR

STARTCHAR paragraph
ENCODING 182
SWIDTH 800 0
DWIDTH 12 0
BBX 8 14 2 -4
BITMAP
3F
7A
FA
FA
FA
7A
3A
0A
0A
0A
0A
0A
0A
0A
ENDCHAR

STARTCHAR periodcentered
ENCODING 183
SWIDTH 340 0
DWIDTH 5 0
BBX 3 3 1 4
BITMAP
60
E0
40
ENDCHAR

STARTCHAR cedilla
ENCODING 184
SWIDTH 360 0
DWIDTH 5 0
BBX 3 4 1 -3
BITMAP
40
E0
20
E0
ENDCHAR

STARTCHAR onesuperior
ENCODING 185
SWIDTH 396 0
DWIDTH 6 0
BBX 4 6 1 4
BITMAP
20
E0
60
60
60
F0
ENDCHAR

STARTCHAR ordmasculine
ENCODING 186
SWIDTH 400 0
DWIDTH 6 0
BBX 6 5 0 5
BITMAP
78
CC
CC
CC
78
ENDCHAR

STARTCHAR guillemotright
ENCODING 187
SWIDTH 400 0
DWIDTH 6 0
BBX 6 6 0 1
BITMAP
90
D8
6C
6C
D8
90
ENDCHAR

STARTCHAR onequarter
ENCODING 188
SWIDTH 990 0
DWIDTH 15 0
BBX 12 10 2 0
BITMAP
4080
C180
4100
4200
4660
E4A0
0920
19F0
1020
2020
ENDCHAR

STARTCHAR onehalf
ENCODING 189
SWIDTH 990 0
DWIDTH 15 0
BBX 12 10 2 0
BITMAP
4080
C180
4100
4200
46C0
E520
0830
1840
10D0
21F0
ENDCHAR

STARTCHAR threequarters
ENCODING 190
SWIDTH 990 0
DWIDTH 15 0
BBX 13 10 1 0
BITMAP
7040
98C0
3080
1900
9330
6250
0490
0CF8
0810
1010
ENDCHAR

STARTCHAR questiondown
ENCODING 191
SWIDTH 660 0
DWIDTH 10 0
BBX 8 11 1 -3
BITMAP
06
06
00
04
3C
60
C0
C0
E1
73
3E
ENDCHAR

STARTCHAR Agrave
ENCODING 192
SWIDTH 720 0
DWIDTH 11 0
BBX 11 13 0 0
BITMAP
1800
0C00
0000
0C00
0E00
1E00
1B00
1300
3180
3F80
61C0
40C0
E1E0
ENDCHAR

STARTCHAR Aacute
ENCODING 193
SWIDTH 720 0
DWIDTH 11 0
BBX 11 13 0 0
BITMAP
0600
0C00
0000
0C00
0E00
1E00
1B00
1300
3180
3F80
61C0
40C0
E1E0
ENDCHAR

STARTCHAR Acircumflex
ENCODING 194
SWIDTH 720 0
DWIDTH 11 0
BBX 11 13 0 0
BITMAP
0E00
1B00
0000
0C00
0E00
1E00
1B00
1300
3180
3F80
61C0
40C0
E1E0
ENDCHAR

STARTCHAR Atilde
ENCODING 195
SWIDTH 720 0
DWIDTH 11 0
BBX 11 13 0 0
BITMAP
1D00
2E00
0000
0C00
0E00
1E00
1B00
1300
3180
3F80
61C0
40C0
E1E0
ENDCHAR

STARTCHAR Adieresis
ENCODING 196
SWIDTH 720 0
DWIDTH 11 0
BBX 11 13 0 0
BITMAP
3300
3300
0000
0C00
0E00
1E00
1B00
1300
3180
3F80
61C0
40C0
E1E0
ENDCHAR

STARTCHAR Aring
ENCODING 197
SWIDTH 720 0
DWIDTH 11 0
BBX 11 13 0 0
BITMAP
0C00
1200
1200
0C00
0E00
1E00
1B00
1300
3180
3F80
61C0
40C0
E1E0
ENDCHAR

STARTCHAR AE
ENCODING 198
SWIDTH 1140 0
DWIDTH 17 0
BBX 16 10 0 0
BITMAP
0FFE
04C3
0CC1
08C4
10FC
1FC4
30C0
20C1
60C3
F1FE
ENDCHAR

STARTCHAR Ccedilla
ENCODING 199
SWIDTH 740 0
DWIDTH 11 0
BBX 10 13 1 -3
BITMAP
1E80
71C0
60C0
C040
C000
C000
C040
60C0
7180
1E00
0800
0C00
3800
ENDCHAR

STARTCHAR Egrave
ENCODING 200
SWIDTH 720 0
DWIDTH 11 0
BBX 9 13 1 0
BITMAP
3000
1800
0000
FF00
6180
6080
6200
7E00
6200
6000
6080
6180
FF00
ENDCHAR

STARTCHAR Eacute
ENCODING 201
SWIDTH 720 0
DWIDTH 11 0
BBX 9 13 1 0
BITMAP
0600
0C00
0000
FF00
6180
6080
6200
7E00
6200
6000
6080
6180
FF00
ENDCHAR

STARTCHAR Ecircumflex
ENCODING 202
SWIDTH 720 0
DWIDTH 11 0
BBX 9 13 1 0
BITMAP
1C00
3600
0000
FF00
6180
6080
6200
7E00
6200
6000
6080
6180
FF00
ENDCHAR

STARTCHAR Edieresis
ENCODING 203
SWIDTH 720 0
DWIDTH 11 0
BBX 9 13 1 0
BITMAP
3300
3300
0000
FF00
6180
6080
6200
7E00
6200
6000
6080
6180
FF00
ENDCHAR

STARTCHAR Igrave
ENCODING 204
SWIDTH 400 0
DWIDTH 6 0
BBX 4 13 1 0
BITMAP
C0
60
00
F0
60
60
60
60
60
60
60
60
F0
ENDCHAR

STARTCHAR Iacute
ENCODING 205
SWIDTH 400 0
DWIDTH 6 0
BBX 4 13 1 0
BITMAP
30
60
00
F0
60
60
60
60
60
60
60
60
F0
ENDCHAR

STARTCHAR Icircumflex
ENCODING 206
SWIDTH 400 0
DWIDTH 6 0
BBX 5 13 1 0
BITMAP
70
D8
00
F0
60
60
60
60
60
60
60
60
F0
ENDCHAR

STARTCHAR Idieresis
ENCODING 207
SWIDTH 400 0
DWIDTH 6 0
BBX 6 13 0 0
BITMAP
CC
CC
00
78
30
30
30
30
30
30
30
30
78
ENDCHAR

STARTCHAR Gbreve
ENCODING 208
SWIDTH 780 0
DWIDTH 12 0
BBX 11 13 1 0
BITMAP
1100
0E00
0000
1E80
71C0
60C0
C040
C000
C1E0
C0C0
60C0
71C0
1E40
ENDCHAR

STARTCHAR Ntilde
ENCODING 209
SWIDTH 740 0
DWIDTH 11 0
BBX 10 13 1 0
BITMAP
1D00
2E00
0000
F1C0
7880
5880
4C80
4C80
4680
4680
4380
4380
E180
ENDCHAR

STARTCHAR Ograve
ENCODING 210
SWIDTH 800 0
DWIDTH 12 0
BBX 10 13 1 0
BITMAP
1800
0C00
0000
1E00
7380
6180
C0C0
C0C0
C0C0
C0C0
6180
7380
1E00
ENDCHAR

STARTCHAR Oacute
ENCODING 211
SWIDTH 800 0
DWIDTH 12 0
BBX 10 13 1 0
BITMAP
0600
0C00
0000
1E00
7380
6180
C0C0
C0C0
C0C0
C0C0
6180
7380
1E00
ENDCHAR

STARTCHAR Ocircumflex
ENCODING 212
SWIDTH 800 0
DWIDTH 12 0
BBX 10 13 1 0
BITMAP
0E00
1B00
0000
1E00
7380
6180
C0C0
C0C0
C0C0
C0C0
6180
7380
1E00
ENDCHAR

STARTCHAR Otilde
ENCODING 213
SWIDTH 800 0
DWIDTH 12 0
BBX 10 13 1 0
BITMAP
1D00
2E00
0000
1E00
7380
6180
C0C0
C0C0
C0C0
C0C0
6180
7380
1E00
ENDCHAR

STARTCHAR Odieresis
ENCODING 214
SWIDTH 800 0
DWIDTH 12 0
BBX 10 13 1 0
BITMAP
3300
3300
0000
1E00
7380
6180
C0C0
C0C0
C0C0
C0C0
6180
7380
1E00
ENDCHAR

STARTCHAR multiply
ENCODING 215
SWIDTH 600 0
DWIDTH 9 0
BBX 7 7 1 2
BITMAP
42
C6
6C
38
38
6C
C6
ENDCHAR

STARTCHAR Oslash
ENCODING 216
SWIDTH 800 0
DWIDTH 12 0
BBX 10 10 1 0
BITMAP
1EC0
7380
6180
C2C0
C4C0
C8C0
D0C0
6180
7380
9E00
ENDCHAR

STARTCHAR Ugrave
ENCODING 217
SWIDTH 740 0
DWIDTH 11 0
BBX 10 13 1 0
BITMAP
0C00
0600
0000
F1C0
6080
6080
6080
6080
6080
6080
6080
3100
1E00
ENDCHAR

STARTCHAR Uacute
ENCODING 218
SWIDTH 740 0
DWIDTH 11 0
BBX 10 13 1 0
BITMAP
0600
0C00
0000
F1C0
6080
6080
6080
6080
6080
6080
6080
3100
1E00
ENDCHAR

STARTCHAR Ucircumflex
ENCODING 219
SWIDTH 740 0
DWIDTH 11 0
BBX 10 13 1 0
BITMAP
0E00
1B00
0000
F1C0
6080
6080
6080
6080
6080
6080
6080
3100
1E00
ENDCHAR

STARTCHAR Udieresis
ENCODING 220
SWIDTH 740 0
DWIDTH 11 0
BBX 10 13 1 0
BITMAP
3300
3300
0000
F1C0
6080
6080
6080
6080
6080
6080
6080
3100
1E00
ENDCHAR

STARTCHAR Idotaccent
ENCODING 221
SWIDTH 400 0
DWIDTH 6 0
BBX 4 13 1 0
BITMAP
60
60
00
F0
60
60
60
60
60
60
60
60
F0
ENDCHAR

STARTCHAR Scedilla
ENCODING 222
SWIDTH 660 0
DWIDTH 10 0
BBX 8 13 1 -3
BITMAP
7D
E7
C3
F1
7C
1E
87
C3
E7
BE
08
0C
38
ENDCHAR

STARTCHAR germandbls
ENCODING 223
SWIDTH 660 0
DWIDTH 10 0
BBX 9 11 1 0
BITMAP
1C00
3700
6300
6600
EC00
6C00
6F00
6780
6980
6D80
E700
ENDCHAR

STARTCHAR agrave
ENCODING 224
SWIDTH 580 0
DWIDTH 9 0
BBX 8 10 1 0
BITMAP
30
18
00
7C
C6
06
7E
C6
C6
7B
ENDCHAR

STARTCHAR aacute
ENCODING 225
SWIDTH 580 0
DWIDTH 9 0
BBX 8 10 1 0
BITMAP
18
30
00
7C
C6
06
7E
C6
C6
7B
ENDCHAR

STARTCHAR acircumflex
ENCODING 226
SWIDTH 580 0
DWIDTH 9 0
BBX 8 10 1 0
BITMAP
38
6C
00
7C
C6
06
7E
C6
C6
7B
ENDCHAR

STARTCHAR atilde
ENCODING 227
SWIDTH 580 0
DWIDTH 9 0
BBX 8 10 1 0
BITMAP
3A
5C
00
7C
C6
06
7E
C6
C6
7B
ENDCHAR

STARTCHAR adieresis
ENCODING 228
SWIDTH 580 0
DWIDTH 9 0
BBX 8 10 1 0
BITMAP
66
66
00
7C
C6
06
7E
C6
C6
7B
ENDCHAR

STARTCHAR aring
ENCODING 229
SWIDTH 580 0
DWIDTH 9 0
BBX 8 11 1 0
BITMAP
18
24
24
18
7C
C6
06
7E
C6
C6
7B
ENDCHAR

STARTCHAR ae
ENCODING 230
SWIDTH 880 0
DWIDTH 13 0
BBX 12 7 1 0
BITMAP
7DE0
C630
07F0
7E00
C600
CF10
79E0
ENDCHAR

STARTCHAR ccedilla
ENCODING 231
SWIDTH 580 0
DWIDTH 9 0
BBX 8 10 1 -3
BITMAP
3E
67
C2
C0
C0
62
3C
10
18
70
ENDCHAR

STARTCHAR egrave
ENCODING 232
SWIDTH 580 0
DWIDTH 8 0
BBX 7 10 1 0
BITMAP
30
18
00
3C
66
FE
C0
C0
62
3C
ENDCHAR

STARTCHAR eacute
ENCODING 233
SWIDTH 580 0
DWIDTH 8 0
BBX 7 10 1 0
BITMAP
0C
18
00
3C
66
FE
C0
C0
62
3C
ENDCHAR

STARTCHAR ecircumflex
ENCODING 234
SWIDTH 580 0
DWIDTH 8 0
BBX 7 10 1 0
BITMAP
38
6C
00
3C
66
FE
C0
C0
62
3C
ENDCHAR

STARTCHAR edieresis
ENCODING 235
SWIDTH 580 0
DWIDTH 8 0
BBX 7 10 1 0
BITMAP
66
66
00
3C
66
FE
C0
C0
62
3C
ENDCHAR

STARTCHAR igrave
ENCODING 236
SWIDTH 360 0
DWIDTH 5 0
BBX 4 10 1 0
BITMAP
C0
60
00
20
E0
60
60
60
60
F0
ENDCHAR

STARTCHAR iacute
ENCODING 237
SWIDTH 360 0
DWIDTH 5 0
BBX 4 10 1 0
BITMAP
30
60
00
20
E0
60
60
60
60
F0
ENDCHAR

STARTCHAR icircumflex
ENCODING 238
SWIDTH 360 0
DWIDTH 5 0
BBX 5 10 0 0
BITMAP
70
D8
00
10
70
30
30
30
30
78
ENDCHAR

STARTCHAR idieresis
ENCODING 239
SWIDTH 360 0
DWIDTH 5 0
BBX 5 10 0 0
BITMAP
D8
D8
00
10
70
30
30
30
30
78
ENDCHAR

STARTCHAR gbreve
ENCODING 240
SWIDTH 580 0
DWIDTH 9 0
BBX 7 13 2 -3
BITMAP
44
38
00
7A
CC
CC
CC
78
80
FC
7E
C6
FC
ENDCHAR

STARTCHAR ntilde
ENCODING 241
SWIDTH 680 0
DWIDTH 10 0
BBX 9 10 1 0
BITMAP
3A00
5C00
0000
2E00
F300
6300
6300
6300
6300
F780
ENDCHAR

STARTCHAR ograve
ENCODING 242
SWIDTH 620 0
DWIDTH 9 0
BBX 8 10 1 0
BITMAP
30
18
00
3C
66
C3
C3
C3
66
3C
ENDCHAR

STARTCHAR oacute
ENCODING 243
SWIDTH 620 0
DWIDTH 9 0
BBX 8 10 1 0
BITMAP
0C
18
00
3C
66
C3
C3
C3
66
3C
ENDCHAR

STARTCHAR ocircumflex
ENCODING 244
SWIDTH 620 0
DWIDTH 9 0
BBX 8 10 1 0
BITMAP
1C
36
00
3C
66
C3
C3
C3
66
3C
ENDCHAR

STARTCHAR otilde
ENCODING 245
SWIDTH 620 0
DWIDTH 9 0
BBX 8 10 1 0
BITMAP
3A
5C
00
3C
66
C3
C3
C3
66
3C
ENDCHAR

STARTCHAR odieresis
ENCODING 246
SWIDTH 620 0
DWIDTH 9 0
BBX 8 10 1 0
BITMAP
66
66
00
3C
66
C3
C3
C3
66
3C
ENDCHAR

STARTCHAR divide
ENCODING 247
SWIDTH 600 0
DWIDTH 9 0
BBX 8 7 1 2
BITMAP
18
18
00
FF
00
18
18
ENDCHAR

STARTCHAR oslash
ENCODING 248
SWIDTH 620 0
DWIDTH 9 0
BBX 8 7 1 0
BITMAP
3D
66
CB
CB
D3
66
BC
ENDCHAR

STARTCHAR ugrave
ENCODING 249
SWIDTH 660 0
DWIDTH 10 0
BBX 9 10 1 0
BITMAP
1800
0C00
0000
E700
6300
6300
6300
6300
6700
3B80
ENDCHAR

STARTCHAR uacute
ENCODING 250
SWIDTH 660 0
DWIDTH 10 0
BBX 9 10 1 0
BITMAP
0C00
1800
0000
E700
6300
6300
6300
6300
6700
3B80
ENDCHAR

STARTCHAR ucircumflex
ENCODING 251
SWIDTH 660 0
DWIDTH 10 0
BBX 9 10 1 0
BITMAP
1C00
3600
0000
E700
6300
6300
6300
6300
6700
3B80
ENDCHAR

STARTCHAR udieresis
ENCODING 252
SWIDTH 660 0
DWIDTH 10 0
BBX 9 10 1 0
BITMAP
6600
6600
0000
E700
6300
6300
6300
6300
6700
3B80
ENDCHAR

STARTCHAR dotlessi
ENCODING 253
SWIDTH 360 0
DWIDTH 5 0
BBX 4 7 1 0
BITMAP
20
E0
60
60
60
60
F0
ENDCHAR

STARTCHAR scedilla
ENCODING 254
SWIDTH 520 0
DWIDTH 8 0
BBX 7 10 1 -3
BITMAP
7C
C6
E0
78
1E
C6
7C
10
18
70
ENDCHAR

STARTCHAR ydieresis
ENCODING 255
SWIDTH 620 0
DWIDTH 10 0
BBX 9 14 1 -4
BITMAP
3300
3300
0000
F380
6100
6300
3200
3600
1C00
1C00
0C00
9800
D800
7000
ENDCHAR
ENDFONT
